<?xml version="1.0" standalone="no"?>
<!DOCTYPE svg PUBLIC "-//W3C//DTD SVG 20010904//EN"
 "http://www.w3.org/TR/2001/REC-SVG-20010904/DTD/svg10.dtd">
<svg version="1.0" xmlns="http://www.w3.org/2000/svg"
 width="2000.000000pt" height="1500.000000pt" viewBox="0 0 2000.000000 1500.000000"
 preserveAspectRatio="xMidYMid meet">

<g transform="translate(0.000000,1500.000000) scale(0.100000,-0.100000)"
fill="#000000" stroke="none">
<path d="M9695 11957 c-259 -98 -458 -192 -572 -270 l-82 -56 2 97 2 97 -27 3
c-21 3 -44 -13 -120 -85 -190 -179 -224 -199 -316 -184 -114 18 -240 -21 -349
-108 -60 -47 -148 -166 -165 -224 -16 -55 -38 -61 -183 -51 -169 12 -235 10
-272 -10 -62 -31 -260 -212 -560 -509 -327 -324 -313 -306 -378 -490 -38 -109
-87 -169 -313 -385 -348 -331 -416 -411 -507 -592 -116 -232 -149 -369 -260
-1082 l-37 -237 90 -183 c140 -282 217 -494 267 -730 41 -194 33 -238 -45
-238 l-38 0 -4 -62 c-3 -35 -2 -107 3 -161 10 -118 14 -128 261 -687 194 -438
305 -708 365 -892 37 -114 39 -116 75 -127 40 -12 90 -57 112 -100 8 -14 22
-64 31 -111 72 -357 227 -574 477 -666 30 -12 98 -19 233 -24 220 -8 264 -20
355 -96 118 -98 298 -164 451 -164 l77 0 243 -126 c242 -125 395 -211 476
-266 50 -34 69 -35 100 -6 32 29 43 13 43 -62 l0 -56 143 17 c261 32 438 42
669 36 227 -5 332 -18 482 -57 46 -12 91 -18 105 -15 158 40 288 14 472 -93
72 -42 147 -58 175 -37 13 9 15 20 10 49 -7 37 -7 37 47 61 64 30 318 87 344
79 10 -4 52 -42 93 -85 96 -101 110 -102 110 -11 0 77 21 130 60 149 15 7 64
13 118 13 l92 0 0 71 c0 72 20 136 46 146 6 2 68 67 138 143 114 126 244 240
273 240 6 0 41 -33 77 -72 l66 -73 0 35 c0 50 -41 132 -95 189 -27 29 -45 57
-43 67 2 12 30 26 84 45 126 42 151 44 205 16 l46 -23 -14 33 c-28 67 27 101
177 112 85 5 102 10 124 30 29 27 56 99 56 149 0 29 18 55 113 171 62 75 141
173 175 217 210 279 406 647 581 1092 25 63 18 62 -70 -15 -79 -69 -149 -149
-208 -236 -75 -111 -111 -135 -158 -102 -22 15 -23 14 -53 -85 -18 -55 -34
-100 -37 -100 -2 0 -2 34 2 75 4 41 5 75 1 75 -3 0 -86 -62 -183 -138 -449
-349 -904 -679 -1263 -917 -232 -154 -258 -169 -307 -179 -44 -10 -94 16 -120
60 l-20 35 -49 -44 c-61 -55 -89 -70 -114 -62 -22 7 -35 43 -28 78 4 21 1 22
-66 24 -80 2 -98 -8 -116 -63 -14 -42 -35 -43 -55 -5 -8 17 -19 32 -24 35 -5
3 -15 -33 -22 -82 -11 -75 -13 -83 -20 -54 -11 53 -24 59 -56 25 -15 -16 -33
-37 -38 -47 -10 -17 -14 -14 -43 30 -17 27 -47 67 -67 89 l-35 40 15 -44 c26
-77 14 -121 -24 -87 -18 16 -19 14 -23 -41 -4 -42 -10 -60 -23 -68 -10 -5 -46
-35 -79 -65 l-61 -56 -135 -12 c-138 -13 -305 -42 -396 -67 -50 -14 -57 -14
-195 20 -272 65 -566 111 -897 140 -202 18 -290 34 -428 80 -95 31 -290 123
-378 178 l-38 24 31 13 c47 19 81 65 81 108 -1 30 -3 34 -11 19 -15 -25 -54
-43 -142 -62 l-77 -17 -100 93 c-54 52 -256 240 -447 419 -552 516 -893 865
-988 1014 -44 69 -88 164 -157 336 -70 175 -129 310 -137 310 -3 0 -15 -7 -25
-15 -35 -26 -63 -18 -92 24 -64 98 -23 209 61 165 26 -13 26 -13 21 14 -23
117 -87 617 -84 658 3 34 22 87 58 163 l53 113 63 574 c68 617 85 718 160 944
102 307 268 584 529 879 200 226 708 698 837 777 178 110 648 385 753 440 311
166 551 253 840 305 96 17 178 23 410 28 267 5 293 8 329 27 61 31 80 78 84
204 l4 105 -59 0 c-55 0 -64 3 -117 45 -92 71 -140 100 -177 105 -26 4 -86
-14 -254 -78z m-3387 -5714 c11 -16 43 -82 71 -147 29 -66 61 -132 72 -148 25
-35 10 -36 -46 -3 -55 32 -72 60 -84 135 -6 35 -24 89 -41 121 -35 69 -36 69
-11 69 11 0 28 -12 39 -27z m-99 -80 c16 -54 28 -99 27 -101 -2 -2 -32 31 -66
73 -61 74 -62 76 -46 100 9 14 25 25 35 25 16 0 25 -19 50 -97z"/>
<path d="M11161 11728 c-19 -12 -43 -40 -53 -60 l-19 -36 -34 14 c-41 17 -221
19 -277 4 -96 -27 -150 -122 -126 -220 9 -35 27 -61 82 -116 120 -120 317
-200 526 -211 85 -5 102 -9 160 -41 250 -137 596 -366 1170 -776 408 -291 415
-296 463 -296 36 0 71 10 134 40 47 22 90 40 94 40 5 0 9 -39 9 -87 0 -111 26
-219 90 -382 66 -164 95 -202 233 -298 128 -89 177 -264 127 -458 l-20 -78 50
-94 c97 -182 186 -299 301 -396 56 -48 59 -52 59 -96 0 -53 27 -114 53 -119
10 -2 32 11 52 31 l35 35 0 -31 c0 -18 -7 -86 -16 -152 -17 -130 -21 -389 -6
-445 7 -30 9 -23 16 59 19 249 73 547 130 721 18 58 32 107 29 110 -5 5 -39
-32 -98 -105 -16 -20 -38 -37 -48 -38 -17 -2 -19 10 -23 158 -5 216 -18 353
-64 728 l-40 317 -458 732 c-455 729 -457 732 -566 845 -319 332 -731 562
-1246 694 -76 19 -118 22 -385 26 l-300 5 -34 -24z"/>
<path d="M7743 7556 c-229 -44 -355 -203 -322 -407 21 -129 97 -230 352 -465
331 -303 391 -388 418 -595 20 -148 -21 -304 -105 -396 -20 -23 -63 -53 -98
-69 -61 -28 -68 -29 -223 -29 -153 0 -162 1 -218 27 -32 15 -72 37 -89 49 -30
22 -31 22 -44 4 -20 -27 -18 -30 24 -64 67 -56 131 -74 286 -79 214 -7 316 26
413 132 154 168 162 500 17 718 -29 43 -117 136 -244 259 -109 105 -208 197
-219 206 -42 29 -152 167 -182 229 -57 116 -39 245 47 328 50 48 96 72 181 92
125 30 326 2 422 -57 36 -22 51 -15 51 24 0 24 -80 73 -140 86 -84 18 -250 22
-327 7z"/>
<path d="M9872 6990 c-77 -11 -202 -43 -276 -71 l-56 -20 0 -675 c0 -470 3
-674 11 -674 6 0 19 5 30 10 18 10 19 28 19 655 l0 644 83 26 c124 40 302 60
401 46 144 -20 202 -79 226 -231 6 -39 10 -285 10 -607 0 -511 1 -543 18 -543
44 1 43 -16 40 606 -3 521 -6 595 -21 640 -33 100 -84 150 -181 179 -63 19
-220 27 -304 15z"/>
<path d="M11165 6994 c-11 -2 -45 -9 -75 -15 -201 -41 -323 -214 -361 -514
-18 -147 -7 -496 20 -603 40 -160 101 -251 199 -299 51 -25 69 -28 179 -32
103 -2 133 0 190 18 110 34 166 82 149 127 -5 13 -10 13 -33 -4 -137 -96 -314
-117 -449 -51 -89 42 -137 113 -176 257 -16 60 -21 119 -25 273 -8 278 13 429
76 565 56 119 136 184 262 210 101 21 181 12 265 -31 65 -32 66 -32 74 -11 11
30 -3 51 -53 75 -68 33 -174 48 -242 35z"/>
<path d="M8447 6962 c-3 -4 85 -329 195 -722 110 -393 200 -725 200 -736 1
-31 -50 -179 -84 -247 -36 -72 -99 -142 -152 -169 -48 -25 -141 -27 -204 -5
-44 15 -62 8 -62 -24 0 -27 22 -38 98 -49 171 -24 286 44 373 221 49 98 51
105 285 979 l201 755 -24 3 c-14 2 -29 0 -34 -5 -14 -14 -310 -1139 -339
-1288 -14 -73 -21 -98 -25 -93 -2 2 -22 80 -44 173 -32 138 -284 1062 -322
1183 -8 24 -16 32 -34 32 -13 0 -26 -3 -28 -8z"/>
<path d="M11710 6949 c-24 -44 -25 -44 395 -40 334 3 397 1 393 -10 -3 -8
-182 -295 -398 -639 -217 -343 -398 -636 -403 -651 -6 -14 -7 -34 -4 -43 6
-15 44 -16 444 -14 l438 3 3 39 c3 36 2 38 -20 32 -41 -12 -788 -20 -788 -9 0
6 180 295 401 643 220 348 405 644 410 658 20 53 33 52 -430 52 -424 0 -430 0
-441 -21z"/>
</g>
</svg>
